# xmcd
#
# Track frame offsets: 
#        150
#        45272
#        84572
#        108740
#        141280
#
# Disc length: 2336 seconds
#
# Revision: 2
# Processed by: cddbd v1.5.2PL0 Copyright (c) Steve Scherf et al.
# Submitted via: ExactAudioCopy v1.1
#
DISCID=3c091e05
DTITLE=Kenny Dorham - Kenny Dorham And The Jazz Prophets Vol.1
DYEAR=1956
DGENRE=Jazz
TTITLE0=The Prophet
TTITLE1=Blues Elegante
TTITLE2=DX
TTITLE3=Don't Explain
TTITLE4=Tahitian Suite
EXTD=YEAR: 1956
EXTT0=
EXTT1=
EXTT2=
EXTT3=
EXTT4=
PLAYORDER=
